<svg width="450" height="518" viewBox="0 0 450 518" fill="none" xmlns="http://www.w3.org/2000/svg">
<g opacity="0.3">
<path opacity="0.3" d="M200.091 145.04L150.743 173.568V230.623L200.091 202.095V145.04Z" stroke="#462ACD" stroke-width="5" stroke-linecap="round" stroke-linejoin="round"/>
<path opacity="0.3" d="M200.092 145.04L150.745 116.513L101.297 145.04L150.645 173.568L200.092 145.04Z" stroke="#462ACD" stroke-width="5" stroke-linecap="round" stroke-linejoin="round"/>
<path opacity="0.3" d="M249.439 230.623L200.092 259.05V316.106L249.439 287.578V230.623Z" stroke="#462ACD" stroke-width="5" stroke-linecap="round" stroke-linejoin="round"/>
<path opacity="0.3" d="M249.438 230.623L200.091 202.095L150.743 230.623L200.091 259.05L249.438 230.623Z" stroke="#462ACD" stroke-width="5" stroke-linecap="round" stroke-linejoin="round"/>
<path opacity="0.3" d="M101.297 145.04L150.745 173.568V230.623L200.092 259.05V316.106L101.297 259.05V145.04Z" stroke="#462ACD" stroke-width="5" stroke-linecap="round" stroke-linejoin="round"/>
</g>
<g opacity="0.3">
<path opacity="0.3" d="M249.543 344.432L200.095 372.96V429.915L249.543 401.487V344.432Z" stroke="#462ACD" stroke-width="5" stroke-linecap="round" stroke-linejoin="round"/>
<path opacity="0.3" d="M249.542 344.432L200.095 315.905L150.747 344.432L200.095 372.96L249.542 344.432Z" stroke="#462ACD" stroke-width="5" stroke-linecap="round" stroke-linejoin="round"/>
<path opacity="0.3" d="M298.889 429.915L249.542 458.443V515.498L298.889 486.97V429.915Z" stroke="#462ACD" stroke-width="5" stroke-linecap="round" stroke-linejoin="round"/>
<path opacity="0.3" d="M298.891 429.915L249.543 401.487L200.095 429.915L249.543 458.442L298.891 429.915Z" stroke="#462ACD" stroke-width="5" stroke-linecap="round" stroke-linejoin="round"/>
<path opacity="0.3" d="M150.747 344.432L200.095 372.96V429.915L249.542 458.442V515.497L150.747 458.442V344.432Z" stroke="#462ACD" stroke-width="5" stroke-linecap="round" stroke-linejoin="round"/>
</g>
<g opacity="0.3">
<path opacity="0.3" d="M101.3 372.96L51.9525 401.487V458.442L101.3 429.915V372.96Z" stroke="#462ACD" stroke-width="5" stroke-linecap="round" stroke-linejoin="round"/>
<path opacity="0.3" d="M2.50242 372.96L51.9502 401.487V458.442L2.50242 429.915V372.96Z" stroke="#462ACD" stroke-width="5" stroke-linecap="round" stroke-linejoin="round"/>
<path opacity="0.3" d="M2.50242 372.96L51.9502 344.432L101.298 372.96L51.9502 401.487L2.50242 372.96Z" stroke="#462ACD" stroke-width="5" stroke-linecap="round" stroke-linejoin="round"/>
</g>
<g opacity="0.3">
<path opacity="0.3" d="M150.648 287.377L101.301 315.905V372.96L150.648 344.432V287.377Z" stroke="#462ACD" stroke-width="5" stroke-linecap="round" stroke-linejoin="round"/>
<path opacity="0.3" d="M51.9525 287.377L101.3 315.905V372.96L51.9525 344.432V287.377Z" stroke="#462ACD" stroke-width="5" stroke-linecap="round" stroke-linejoin="round"/>
<path opacity="0.3" d="M51.9525 287.377L101.3 258.849L150.648 287.377L101.3 315.905L51.9525 287.377Z" stroke="#462ACD" stroke-width="5" stroke-linecap="round" stroke-linejoin="round"/>
</g>
<g opacity="0.3">
<path opacity="0.3" d="M447.034 287.377L348.238 344.432V458.442L447.034 401.487V287.377Z" stroke="#462ACD" stroke-width="5" stroke-linecap="round" stroke-linejoin="round"/>
<path opacity="0.3" d="M249.542 287.377L348.237 344.432V458.442L249.542 401.487V287.377Z" stroke="#462ACD" stroke-width="5" stroke-linecap="round" stroke-linejoin="round"/>
<path opacity="0.3" d="M249.542 287.377L348.237 230.322L447.032 287.377L348.337 344.432L249.542 287.377Z" stroke="#462ACD" stroke-width="5" stroke-linecap="round" stroke-linejoin="round"/>
</g>
<g opacity="0.3">
<path opacity="0.3" d="M298.889 145.04L249.542 173.568V230.623L298.889 202.095V145.04Z" stroke="#462ACD" stroke-width="5" stroke-linecap="round" stroke-linejoin="round"/>
<path opacity="0.3" d="M200.095 145.04L249.543 173.568V230.623L200.095 202.095V145.04Z" stroke="#462ACD" stroke-width="5" stroke-linecap="round" stroke-linejoin="round"/>
<path opacity="0.3" d="M200.095 145.04L249.543 116.513L298.891 145.04L249.543 173.568L200.095 145.04Z" stroke="#462ACD" stroke-width="5" stroke-linecap="round" stroke-linejoin="round"/>
</g>
<g opacity="0.3">
<path opacity="0.3" d="M298.889 31.03L249.542 59.4574V116.512L298.889 87.9849V31.03Z" stroke="#462ACD" stroke-width="5" stroke-linecap="round" stroke-linejoin="round"/>
<path opacity="0.3" d="M200.095 31.03L249.543 59.4574V116.512L200.095 87.9849V31.03Z" stroke="#462ACD" stroke-width="5" stroke-linecap="round" stroke-linejoin="round"/>
<path opacity="0.3" d="M200.095 31.03L249.543 2.50242L298.891 31.03L249.543 59.4574L200.095 31.03Z" stroke="#462ACD" stroke-width="5" stroke-linecap="round" stroke-linejoin="round"/>
</g>
</svg>
