<svg width="16" height="16" viewBox="0 0 16 16" fill="none" xmlns="http://www.w3.org/2000/svg">
<path d="M13.0004 4.70581L10.6978 7.01434C11.2864 8.24331 11.037 9.71104 10.0755 10.6751C9.1141 11.6391 7.65035 11.8893 6.42473 11.299L4.44434 13.2852C5.48411 13.8225 6.63516 14.1076 7.80487 14.1176C11.8134 14.1176 14.7273 10.5792 15.7942 9.05517C16.0676 8.66067 16.0685 8.13758 15.7967 7.74204C15.0096 6.60476 14.0684 5.58288 13.0004 4.70581V4.70581Z" fill="#9097A5"/>
<path d="M0.202567 9.19414C0.989236 10.3336 1.93085 11.3572 3.00009 12.2353L5.30362 9.92538C4.71555 8.69665 4.96512 7.22953 5.92615 6.26577C6.88718 5.30201 8.35025 5.05164 9.57565 5.64123L11.5556 3.65623C10.516 3.11851 9.36494 2.83327 8.19524 2.82349C4.11925 2.82349 1.24509 6.36568 0.199003 7.88999C-0.0675006 8.28386 -0.0662277 8.80122 0.20221 9.19378L0.202567 9.19414Z" fill="#9097A5"/>
<path d="M1.22714 16C1.09024 16 0.966831 15.9072 0.914447 15.7649C0.862062 15.6226 0.89101 15.4588 0.987798 15.3499L14.5289 0.116276C14.6139 0.0172736 14.7397 -0.0224314 14.8581 0.0124214C14.9764 0.0472742 15.0689 0.151261 15.0999 0.284414C15.1308 0.417567 15.0955 0.559165 15.0075 0.654784L1.46647 15.8884C1.403 15.9598 1.31691 16 1.22714 16Z" fill="#9097A5"/>
</svg>
