<svg width="28" height="32" viewBox="0 0 28 32" fill="none" xmlns="http://www.w3.org/2000/svg">
<g filter="url(#filter0_d_6_127493)">
<path d="M20.277 12.7384C20.3009 10.8893 21.2939 9.13964 22.8693 8.17113C21.8754 6.75178 20.2108 5.85187 18.479 5.79768C16.6318 5.60379 14.8411 6.90299 13.8998 6.90299C12.9403 6.90299 11.491 5.81693 9.93044 5.84904C7.89627 5.91476 5.9999 7.07128 5.01023 8.8497C2.88283 12.533 4.46968 17.9461 6.50755 20.9234C7.52714 22.3813 8.71875 24.0098 10.2779 23.952C11.8037 23.8887 12.3736 22.9791 14.2153 22.9791C16.0399 22.9791 16.5746 23.952 18.1654 23.9153C19.8026 23.8887 20.8341 22.4509 21.8179 20.9792C22.5505 19.9404 23.1142 18.7924 23.4882 17.5775C21.5642 16.7637 20.2793 14.8274 20.277 12.7384Z" fill="white"/>
<path d="M17.2722 3.83968C18.1649 2.76805 18.6047 1.39066 18.4982 0C17.1344 0.143243 15.8746 0.795057 14.9698 1.82557C14.0851 2.83244 13.6247 4.1856 13.7118 5.5231C15.0761 5.53715 16.4173 4.903 17.2722 3.83968Z" fill="white"/>
</g>
<defs>
<filter id="filter0_d_6_127493" x="0" y="0" width="27.4883" height="31.9536" filterUnits="userSpaceOnUse" color-interpolation-filters="sRGB">
<feFlood flood-opacity="0" result="BackgroundImageFix"/>
<feColorMatrix in="SourceAlpha" type="matrix" values="0 0 0 0 0 0 0 0 0 0 0 0 0 0 0 0 0 0 127 0" result="hardAlpha"/>
<feOffset dy="4"/>
<feGaussianBlur stdDeviation="2"/>
<feComposite in2="hardAlpha" operator="out"/>
<feColorMatrix type="matrix" values="0 0 0 0 0 0 0 0 0 0 0 0 0 0 0 0 0 0 0.25 0"/>
<feBlend mode="normal" in2="BackgroundImageFix" result="effect1_dropShadow_6_127493"/>
<feBlend mode="normal" in="SourceGraphic" in2="effect1_dropShadow_6_127493" result="shape"/>
</filter>
</defs>
</svg>
