<svg width="18" height="18" viewBox="0 0 18 18" fill="none" xmlns="http://www.w3.org/2000/svg">
<path d="M9 0C7.21997 0 5.47991 0.527841 3.99987 1.51677C2.51983 2.50571 1.36628 3.91131 0.685088 5.55585C0.00389957 7.20038 -0.17433 9.00998 0.172937 10.7558C0.520204 12.5016 1.37737 14.1053 2.63604 15.364C3.89471 16.6226 5.49836 17.4798 7.24419 17.8271C8.99002 18.1743 10.7996 17.9961 12.4442 17.3149C14.0887 16.6337 15.4943 15.4802 16.4832 14.0001C17.4722 12.5201 18 10.78 18 9C17.9974 6.61384 17.0484 4.32616 15.3611 2.63889C13.6738 0.951621 11.3862 0.00258081 9 0ZM9 16.2C7.57164 16.2 6.18657 15.7757 5.03322 14.9883C3.87986 14.2009 2.01809 12.6804 1.51677 11.4C1.01546 10.1196 0.902236 8.69201 1.19215 7.31683C1.48207 5.94166 2.16004 4.68479 3.13604 3.7088C4.11203 2.7328 5.3689 2.05483 6.74408 1.76491C8.11925 1.475 9.54685 1.58822 10.8272 2.08954C12.1076 2.59085 13.6281 4.45262 14.4155 5.60598C15.2029 6.75933 15.6272 8.1444 15.6272 9.57276C15.6251 11.4851 14.8643 13.3186 13.5115 14.6714C12.1587 16.0242 10.3252 16.7851 8.41276 16.7872L9 16.2Z" fill="currentColor"/>
<path d="M9 3.6C8.52261 3.6 8.08979 3.78964 7.8 4.08C7.51021 4.37036 7.32057 4.80318 7.32057 5.28057C7.32057 5.75796 7.51021 6.19078 7.8 6.48114C8.08979 6.7715 8.52261 6.96114 9 6.96114C9.47739 6.96114 9.91021 6.7715 10.2 6.48114C10.4898 6.19078 10.6794 5.75796 10.6794 5.28057C10.6794 4.80318 10.4898 4.37036 10.2 4.08C9.91021 3.78964 9.47739 3.6 9 3.6ZM9 9.9C8.52261 9.9 8.08979 10.0896 7.8 10.38C7.51021 10.6704 7.32057 11.1032 7.32057 11.5806C7.32057 12.058 7.51021 12.4908 7.8 12.7811C8.08979 13.0715 8.52261 13.2611 9 13.2611C9.47739 13.2611 9.91021 13.0715 10.2 12.7811C10.4898 12.4908 10.6794 12.058 10.6794 11.5806C10.6794 11.1032 10.4898 10.6704 10.2 10.38C9.91021 10.0896 9.47739 9.9 9 9.9Z" fill="currentColor"/>
</svg>
