<svg width="18" height="18" viewBox="0 0 18 18" fill="none" xmlns="http://www.w3.org/2000/svg">
<path d="M9 9C11.4853 9 13.5 6.98528 13.5 4.5C13.5 2.01472 11.4853 0 9 0C6.51472 0 4.5 2.01472 4.5 4.5C4.5 6.98528 6.51472 9 9 9ZM9 1.5C10.6569 1.5 12 2.84315 12 4.5C12 6.15685 10.6569 7.5 9 7.5C7.34315 7.5 6 6.15685 6 4.5C6 2.84315 7.34315 1.5 9 1.5Z" fill="#888F9B"/>
<path d="M9 10.5C5.96243 10.5 3.5 12.9624 3.5 16V17.25C3.5 17.6642 3.83579 18 4.25 18H13.75C14.1642 18 14.5 17.6642 14.5 17.25V16C14.5 12.9624 12.0376 10.5 9 10.5ZM5 16C5 13.7909 6.79086 12 9 12C11.2091 12 13 13.7909 13 16V16.5H5V16Z" fill="#888F9B"/>
</svg>
