<svg width="26" height="26" viewBox="0 0 26 26" fill="none" xmlns="http://www.w3.org/2000/svg">
<g clip-path="url(#clip0_323_14642)">
<path d="M14.625 11.7V14.95H22.295C21.515 19.5 17.875 22.75 13.325 22.75C7.995 22.75 3.575 18.33 3.575 13C3.575 7.67 7.995 3.25 13.325 3.25C16.055 3.25 18.395 4.42 20.085 6.24L22.425 3.9C20.085 1.56 16.965 0 13.325 0C6.175 0 0.324997 5.85 0.324997 13C0.324997 20.15 6.175 26 13.325 26C20.475 26 25.675 20.15 25.675 13V11.7H14.625Z" fill="#767D94"/>
</g>
<defs>
<clipPath id="clip0_323_14642">
<rect width="26" height="26" fill="white"/>
</clipPath>
</defs>
</svg>
