<svg width="32" height="32" viewBox="0 0 32 32" fill="none" xmlns="http://www.w3.org/2000/svg">
<g clip-path="url(#clip0_323_14639)">
<path d="M22.507 0H9.175C7.9 0 6.87 1.034 6.87 2.309V29.379C6.87 30.65 7.9 31.685 9.175 31.685H22.507C23.78 31.685 24.814 30.651 24.814 29.379V2.309C24.813 1.034 23.78 0 22.507 0ZM23.085 25.672H8.599V3.895H23.085V25.672ZM18.932 2.343H12.751V1.669H18.933L18.932 2.343ZM21.577 2.035C21.577 2.361 21.311 2.625 20.986 2.625C20.66 2.625 20.395 2.36 20.395 2.035C20.395 1.71 20.66 1.445 20.986 1.445C21.312 1.444 21.577 1.709 21.577 2.035ZM18.655 29.225H13.026V27.493H18.655V29.225Z" fill="#767D94"/>
</g>
<defs>
<clipPath id="clip0_323_14639">
<rect width="31.685" height="31.685" fill="white"/>
</clipPath>
</defs>
</svg>
