<svg width="18" height="18" viewBox="0 0 18 18" fill="none" xmlns="http://www.w3.org/2000/svg">
<path d="M1.14668 14.1207C1.18497 13.7761 1.20411 13.6038 1.25624 13.4428C1.30249 13.2999 1.36784 13.164 1.45051 13.0386C1.54369 12.8973 1.66627 12.7747 1.91142 12.5296L12.9167 1.52434C13.8371 0.603865 15.3295 0.603866 16.25 1.52434C17.1705 2.44482 17.1705 3.9372 16.25 4.85768L5.24475 15.8629C4.9996 16.1081 4.87702 16.2306 4.73572 16.3238C4.61035 16.4065 4.47439 16.4718 4.33152 16.5181C4.17048 16.5702 3.99819 16.5894 3.65362 16.6276L0.833313 16.941L1.14668 14.1207Z" stroke="#475467" stroke-width="1.66667" stroke-linecap="round" stroke-linejoin="round"/>
</svg>
